<svg xmlns="http://www.w3.org/2000/svg" width="32" height="32" viewBox="0 0 32 32">
    <path fill="none" fill-rule="evenodd" stroke="#FF7800" stroke-linecap="round" stroke-linejoin="round" stroke-width="1.2" d="M7.345 21.725L4 25.094l3.345-3.369zm7.324 1.055l3.218-1.492-3.218 1.492zm-3.117 3.188l-.963.952.963-.952zm7.45-14.477c0-.755.245-1.398.735-1.93a2.567 2.567 0 0 1 1.9-.797c.744 0 1.369.266 1.876.798.506.531.76 1.174.76 1.929 0 .736-.254 1.37-.76 1.902-.507.514-1.132.772-1.876.772a2.481 2.481 0 0 1-1.9-.772 2.571 2.571 0 0 1-.735-1.902zm-5.93 1.696c-.354.686-.71 1.398-1.064 2.135l1.064-2.135zm3.7 3.266l-1.825 1.852 2.94 2.983a61.146 61.146 0 0 0 2.078-1.003m-9.401 2.443l2.052-2.031-2.154-2.16-5.068-2.16 3.143-3.19h4.535c.507-1.062.93-1.886 1.267-2.468 1.352-2.28 2.813-3.866 4.384-4.757 1.52-.84 3.278-1.424 5.272-1.75a14.644 14.644 0 0 1 4.814-.025c.27 1.611.254 3.318-.05 5.118-.305 1.885-.88 3.591-1.724 5.117-.844 1.594-2.39 3.094-4.637 4.5-.575.343-1.386.798-2.433 1.363v4.526L16.823 28l-2.154-5.22-2.053-2.083 2.331-2.392-2.94-2.983-1.545 3.214M26.5 21.583v5.834M23.583 24.5h5.834"/>
</svg>
