<?xml version="1.0" encoding="UTF-8"?>
<svg width="32px" height="32px" viewBox="0 0 32 32" version="1.1" xmlns="http://www.w3.org/2000/svg" xmlns:xlink="http://www.w3.org/1999/xlink">
    <!-- Generator: sketchtool 62 (101010) - https://sketch.com -->
    <title>B69FFDD1-9694-400F-9AED-A8EFDEA1989D</title>
    <desc>Created with sketchtool.</desc>
    <g id="Components" stroke="none" stroke-width="1" fill="none" fill-rule="evenodd" stroke-linecap="round" stroke-linejoin="round">
        <g id="Table-V2---Mobile" transform="translate(-206.000000, -306.000000)" stroke="#FF7800" stroke-width="1.2">
            <g id="Sticky-Bar" transform="translate(162.000000, 290.000000)">
                <g id="Pricebox-/-Table-S-/-Free---Mobile" transform="translate(20.000000, 8.000000)">
                    <g id="Icons-/-Products-/-32-/-Free" transform="translate(24.000000, 8.000000)">
                        <path d="M27,13.6 C27,15.3656904 26.7387672,17.3352962 26.3542228,18.462069 C25.1487722,22.0343448 21.9487311,25.1584828 16.7536691,27.8344828 C16.524203,27.9449655 16.2727804,28 16.0002625,28 C15.7277445,28 15.4763219,27.9449655 15.2468558,27.8344828 C10.0517938,25.1584828 6.7337008,22.0808192 5.667828,18.462069 C5.26179873,17.0835569 4.98631784,15.3793103 5.00052494,13.6 C5.01473203,11.8206897 5.00052494,9.3003294 5.00052494,9.27963975 C5.00052494,7.79020809 5.95498357,6.66193103 7.3468486,6.31724138 C7.96111251,6.16512144 10.3289621,5.50305248 14.4503973,4.33103448 C15.1503179,4.11034483 15.6669396,4 16.0002625,4 C16.3335853,4 16.8789082,4.11034483 17.6362313,4.33103448 C21.4055608,5.40689655 23.7590597,6.06896552 24.6967281,6.31724138 C26.1032308,6.68965517 27,7.76951844 27,9.27963975 C27,10.982753 27,12.4228731 27,13.6 Z" id="Outline"></path>
                    </g>
                </g>
            </g>
        </g>
    </g>
</svg>