<?xml version="1.0" encoding="UTF-8"?>
<svg width="16px" height="16px" viewBox="0 0 16 16" version="1.1" xmlns="http://www.w3.org/2000/svg" xmlns:xlink="http://www.w3.org/1999/xlink">
    <!-- Generator: sketchtool 62 (101010) - https://sketch.com -->
    <title>44BFD93D-7879-4A21-A1D2-B54EEF256148</title>
    <desc>Created with sketchtool.</desc>
    <g id="Components" stroke="none" stroke-width="1" fill="none" fill-rule="evenodd">
        <g id="Table-V2---Mobile" transform="translate(-454.000000, -1292.000000)" fill="#514988">
            <g id="Mobile-Responsive" transform="translate(162.000000, 541.000000)">
                <g id="Design" transform="translate(0.000000, -1.000000)">
                    <g id="Table" transform="translate(20.000000, 577.000000)">
                        <g id="Group-6" transform="translate(0.000000, 163.000000)">
                            <g id="Table-/-S-/-Check-/-Secondary" transform="translate(240.000000, 0.000000)">
                                <g id="Icons-/-General-/-16-/-Info" transform="translate(32.000000, 12.000000)">
                                    <path d="M8,0 C12.418278,0 16,3.581722 16,8 C16,12.418278 12.418278,16 8,16 C3.581722,16 0,12.418278 0,8 C0,3.581722 3.581722,0 8,0 Z M8,1.2 C4.2444637,1.2 1.2,4.2444637 1.2,8 C1.2,11.7555363 4.2444637,14.8 8,14.8 C11.7555363,14.8 14.8,11.7555363 14.8,8 C14.8,4.2444637 11.7555363,1.2 8,1.2 Z M8,7.5 C8.51283584,7.5 8.93550716,7.88604019 8.99327227,8.38337887 L9,8.5 L9,11.9863281 C9,12.5386129 8.55228475,12.9863281 8,12.9863281 C7.48716416,12.9863281 7.06449284,12.6002879 7.00672773,12.1029493 L7,11.9863281 L7,8.5 C7,7.94771525 7.44771525,7.5 8,7.5 Z M8,3 C8.51283584,3 8.93550716,3.38604019 8.99327227,3.88337887 L9,4 L9,5 C9,5.55228475 8.55228475,6 8,6 C7.48716416,6 7.06449284,5.61395981 7.00672773,5.11662113 L7,5 L7,4 C7,3.44771525 7.44771525,3 8,3 Z" id="info"></path>
                                </g>
                            </g>
                        </g>
                    </g>
                </g>
            </g>
        </g>
    </g>
</svg>