<svg xmlns="http://www.w3.org/2000/svg" width="32" height="32" viewBox="0 0 32 32">
    <path fill="none" fill-rule="evenodd" stroke="#FF7800" stroke-linecap="round" stroke-linejoin="round" stroke-width="1.2" d="M19.897 17.518l5.923 5.97-5.923-5.97zm-7.171-4.732a1.85 1.85 0 0 1-1.387.6c-.541 0-1.01-.2-1.406-.6a1.91 1.91 0 0 1-.575-1.397c0-.546.191-1.018.575-1.418a1.948 1.948 0 0 1 1.406-.579c.542 0 1.004.193 1.387.58.396.399.594.871.594 1.417a1.88 1.88 0 0 1-.594 1.397zM27.74 22.97c.185.452.27.891.258 1.317v2.157a1.507 1.507 0 0 1-.476 1.078c-.29.306-.647.466-1.07.479h-2.238a1.244 1.244 0 0 1-.614-.28c-.158-.146-.25-.359-.277-.638v-2.057h-1.942c-.277-.027-.495-.12-.653-.28a.986.986 0 0 1-.238-.618V22.23h-2.437l-1.703-1.757c-1.017.466-2.126.699-3.328.699-2.206 0-4.094-.792-5.666-2.376C5.786 17.226 5 15.322 5 13.086c0-2.236.786-4.146 2.357-5.73C8.93 5.786 10.817 5 13.023 5c2.218 0 4.107.785 5.665 2.356 1.572 1.584 2.358 3.494 2.358 5.73 0 .865-.12 1.69-.357 2.476l6.2 6.169c.383.372.667.785.852 1.238zM26.5 4.583v5.834M23.583 7.5h5.834"/>
</svg>
