<?xml version="1.0" encoding="UTF-8"?>
<svg width="32px" height="32px" viewBox="0 0 32 32" version="1.1" xmlns="http://www.w3.org/2000/svg" xmlns:xlink="http://www.w3.org/1999/xlink">
    <!-- Generator: sketchtool 62 (101010) - https://sketch.com -->
    <title>E1D020DF-134E-4433-B764-9F750E9A3677</title>
    <desc>Created with sketchtool.</desc>
    <g id="Components" stroke="none" stroke-width="1" fill="none" fill-rule="evenodd" stroke-linecap="round" stroke-linejoin="round">
        <g id="Table-V2---Mobile" transform="translate(-366.000000, -306.000000)" stroke="#FF7800" stroke-width="1.2">
            <g id="Sticky-Bar" transform="translate(162.000000, 290.000000)">
                <g id="Pricebox-/-Table-S-/-Paid---Mobile" transform="translate(180.000000, 8.000000)">
                    <g id="Icons-/-Products-/-32-/-Premium" transform="translate(24.000000, 8.000000)">
                        <path d="M20.8190061,13.268149 C20.8474199,13.336787 20.8331971,13.3914507 20.7759548,13.4325513 L18.4081345,15.0765738 C18.2643432,15.1723381 18.1782407,15.2615264 18.1498268,15.3437275 C18.1209825,15.4394918 18.1356199,15.5697806 18.1928781,15.7341828 L19.0969549,18.3851692 C19.1253688,18.4538072 19.1111619,18.5084709 19.0539037,18.5495715 C18.982008,18.590672 18.9247498,18.590672 18.8816985,18.5495715 L16.4923526,16.9055489 C16.3485613,16.8097846 16.2267262,16.7616969 16.1264167,16.7616969 L16.1048911,16.7616969 L16.0618398,16.7616969 C15.9757372,16.7616969 15.8539021,16.8097846 15.6959039,16.9055489 L13.3280836,18.5495715 C13.2708254,18.590672 13.2131367,18.590672 13.1558785,18.5495715 C13.0981898,18.5084709 13.0770946,18.4538072 13.0913016,18.3851692 L13.9953784,15.7341828 C14.0668435,15.5697806 14.081481,15.4394918 14.0384297,15.3437275 C14.0100158,15.2615264 13.9234828,15.1723381 13.780122,15.0765738 L11.4338273,13.4325513 C11.3761386,13.3914507 11.3550435,13.336787 11.3692504,13.268149 C11.3976642,13.2134853 11.4480342,13.1859479 11.5199299,13.1859479 L14.4258912,13.1859479 C14.6123032,13.1859479 14.7414571,13.1584105 14.8133527,13.1037468 C14.8852483,13.049083 14.9567135,12.9327684 15.0286091,12.754392 L15.932686,10.1034056 C15.9473234,10.0487419 15.9899442,10.0212045 16.0618398,10.0212045 L16.1048911,10.0212045 L16.1264167,10.0212045 C16.1983123,10.0212045 16.2482518,10.0487419 16.2770962,10.1034056 L17.181173,12.754392 C17.2388617,12.9327684 17.3030082,13.049083 17.3749038,13.1037468 C17.4610063,13.1584105 17.5974789,13.1859479 17.7838909,13.1859479 L20.6898523,13.1859479 C20.7471105,13.1859479 20.7905922,13.2134853 20.8190061,13.268149 Z M27,13.6 C27,15.3656904 26.7387672,17.3352962 26.3542228,18.462069 C25.1487722,22.0343448 21.9487311,25.1584828 16.7536691,27.8344828 C16.524203,27.9449655 16.2727804,28 16.0002625,28 C15.7277445,28 15.4763219,27.9449655 15.2468558,27.8344828 C10.0517938,25.1584828 6.7337008,22.0808192 5.667828,18.462069 C5.26179873,17.0835569 4.98631784,15.3793103 5.00052494,13.6 C5.01473203,11.8206897 5.00052494,9.3003294 5.00052494,9.27963975 C5.00052494,7.79020809 5.95498357,6.66193103 7.3468486,6.31724138 C7.96111251,6.16512144 10.3289621,5.50305248 14.4503973,4.33103448 C15.1503179,4.11034483 15.6669396,4 16.0002625,4 C16.3335853,4 16.8789082,4.11034483 17.6362313,4.33103448 C21.4055608,5.40689655 23.7590597,6.06896552 24.6967281,6.31724138 C26.1032308,6.68965517 27,7.76951844 27,9.27963975 C27,10.982753 27,12.4228731 27,13.6 Z" id="Outline"></path>
                    </g>
                </g>
            </g>
        </g>
    </g>
</svg>