<?xml version="1.0" encoding="UTF-8"?>
<svg width="24px" height="24px" viewBox="0 0 24 24" version="1.1" xmlns="http://www.w3.org/2000/svg" xmlns:xlink="http://www.w3.org/1999/xlink">
    <!-- Generator: sketchtool 62 (101010) - https://sketch.com -->
    <title>B5FDB5CD-FD9D-4C48-9AE5-68ED28A37792</title>
    <desc>Created with sketchtool.</desc>
    <g id="Components" stroke="none" stroke-width="1" fill="none" fill-rule="evenodd" stroke-linecap="round" stroke-linejoin="round">
        <g id="Table-V2---Mobile" transform="translate(-290.000000, -449.000000)" stroke="#FFFFFF" stroke-width="1.2">
            <g id="Sticky-Bar" transform="translate(162.000000, 290.000000)">
                <g id="Button-/-Primary-/-XS-/-Icon-Buy" transform="translate(108.000000, 155.000000)">
                    <g id="Icons-/-General-/-24-/-Store" transform="translate(20.000000, 4.000000)">
                        <path d="M15.3421053,21 C16.126931,21 16.7631579,20.3637731 16.7631579,19.5789474 C16.7631579,18.7941217 16.126931,18.1578947 15.3421053,18.1578947 C14.5572796,18.1578947 13.9210526,18.7941217 13.9210526,19.5789474 C13.9210526,20.3637731 14.5572796,21 15.3421053,21 Z M7.76315789,21 C8.54798359,21 9.18421053,20.3637731 9.18421053,19.5789474 C9.18421053,18.7941217 8.54798359,18.1578947 7.76315789,18.1578947 C6.9783322,18.1578947 6.34210526,18.7941217 6.34210526,19.5789474 C6.34210526,20.3637731 6.9783322,21 7.76315789,21 Z M21.4108233,3.5 L19,3.5 L16.5085152,15.5 C11.7405433,15.5 8.8592765,15.5 7.8647147,15.5 C6.372872,15.5 5.84850765,14.6660108 5.54879606,13.9655738 C5.24908447,13.2651367 3.7545166,9.6137085 3.50781218,8.83368889 C3.26110776,8.05366928 3.14536493,6.49016393 5.54879606,6.49016393 C7.15108348,6.49016393 10.024993,6.49016393 14.1705247,6.49016393" id="Combined-Shape"></path>
                    </g>
                </g>
            </g>
        </g>
    </g>
</svg>