<?xml version="1.0" encoding="UTF-8"?>
<svg width="32px" height="32px" viewBox="0 0 32 32" version="1.1" xmlns="http://www.w3.org/2000/svg" xmlns:xlink="http://www.w3.org/1999/xlink">
    <!-- Generator: sketchtool 62 (101010) - https://sketch.com -->
    <title>814FCA8E-8F13-4411-B870-CC593E90635E</title>
    <desc>Created with sketchtool.</desc>
    <g id="Components" stroke="none" stroke-width="1" fill="none" fill-rule="evenodd" stroke-linecap="round" stroke-linejoin="round">
        <g id="Table-V2---Mobile" transform="translate(-446.000000, -306.000000)" stroke="#FF7800" stroke-width="1.2">
            <g id="Sticky-Bar" transform="translate(162.000000, 290.000000)">
                <g id="Pricebox-/-Table-S-/-Paid---Mobile" transform="translate(260.000000, 8.000000)">
                    <g id="Icons-/-Products-/-32-/-Ultimate" transform="translate(24.000000, 8.000000)">
                        <path d="M14.9163392,14.2164146 L12.3397392,16.6762652 C12.0125519,17.0015121 11.8354618,17.3790796 11.8080599,17.8085773 C11.8354618,18.2251901 11.9990555,18.5828446 12.2992498,18.8823216 C12.6399336,19.1817987 13.0350122,19.3442269 13.4848948,19.3703872 C13.9212808,19.3442269 14.2959103,19.1817987 14.6096011,18.8823216 L14.7731948,18.7261406 M17.2475487,14.6849576 L14.6709487,12.225107 C14.3576669,11.8998601 13.9826285,11.7370415 13.5462424,11.7370415 C13.0967688,11.7370415 12.7147777,11.8865847 12.4014958,12.1860618 C12.0743085,12.5113087 11.8968094,12.8822385 11.8698165,13.2988513 C11.8968094,13.728349 12.0743085,14.0992789 12.4014958,14.4116409 L12.5646805,14.5678219 M14.4464165,16.4615163 L17.0226075,18.8823216 C17.3228018,19.2075685 17.6978402,19.3770249 18.1473138,19.3899098 C18.5971963,19.3770249 18.9791875,19.2208439 19.2924693,18.9213669 C19.6196566,18.59612 19.7971558,18.2251901 19.8241487,17.8085773 C19.7971558,17.3790796 19.6196566,17.0147875 19.2924693,16.7153104 L19.1292847,16.5591294 M16.7363186,16.891014 L19.3129186,14.4116409 C19.6540113,14.1254392 19.8241487,13.7673943 19.8241487,13.3378966 C19.8241487,12.9083989 19.6675078,12.5441067 19.354226,12.2446297 C19.0131332,11.9322677 18.6245983,11.7632018 18.1882122,11.7370415 C17.7383297,11.7632018 17.3497948,11.9322677 17.0226075,12.2446297 L16.8590138,12.4008106 M27,13.6 C27,15.3656904 26.7387672,17.3352962 26.3542228,18.462069 C25.1487722,22.0343448 21.9487311,25.1584828 16.7536691,27.8344828 C16.524203,27.9449655 16.2727804,28 16.0002625,28 C15.7277445,28 15.4763219,27.9449655 15.2468558,27.8344828 C10.0517938,25.1584828 6.7337008,22.0808192 5.667828,18.462069 C5.26179873,17.0835569 4.98631784,15.3793103 5.00052494,13.6 C5.01473203,11.8206897 5.00052494,9.3003294 5.00052494,9.27963975 C5.00052494,7.79020809 5.95498357,6.66193103 7.3468486,6.31724138 C7.96111251,6.16512144 10.3289621,5.50305248 14.4503973,4.33103448 C15.1503179,4.11034483 15.6669396,4 16.0002625,4 C16.3335853,4 16.8789082,4.11034483 17.6362313,4.33103448 C21.4055608,5.40689655 23.7590597,6.06896552 24.6967281,6.31724138 C26.1032308,6.68965517 27,7.76951844 27,9.27963975 C27,10.982753 27,12.4228731 27,13.6 Z" id="Outline"></path>
                    </g>
                </g>
            </g>
        </g>
    </g>
</svg>