<svg xmlns="http://www.w3.org/2000/svg" width="32" height="32" viewBox="0 0 32 32">
    <path fill="none" fill-rule="evenodd" stroke="#FF7800" stroke-linecap="round" stroke-linejoin="round" stroke-width="1.2" d="M10.135 16.5h12c1.033 0 1.652.8 1.652 1.8s-.135 6.6-.135 7.4c0 1-.62 1.8-1.652 1.8H10c-1.032 0-1.652-.8-1.652-1.8 0-.8.136-6.4.136-7.4s.62-1.8 1.651-1.8zm1.365 0v-2c0-2.456 2.106-4 4.5-4s4.5 1.544 4.5 4v2m-4.5 7v-3M10.89 8.6c1.533-1.334 3.03-2.1 5.11-2.1 2.102 0 4.218.766 5.729 2.1M8 6c2.239-2 4.916-3.5 8-3.5 3.13 0 5.785 1.5 8 3.5"/>
</svg>
